PathFileType	4	(X/Y/Z)	C:\Users\Basilio\Documents\Thesis Gigler\squatting_fais\c3dfiles\054\SLS_back_pre2\markers_experimental.trc
DataRate	CameraRate	NumFrames	NumMarkers	Units	OrigDataRate	OrigDataStartFrame	OrigNumFrames
200.000000	200.000000	4	61	mm	200.000000	1151	1535
Frame#	Time	FHD			LBHD			RBHD			C7			T10			CLAV			LSHO			LUUPA			LMUPA			LDUPA			LLEP			LMEP			LRAD			LUL			LRFIN			RSHO			RUPA1			RMUPA			RDUPA			RLEP			RMEP			RRAD			RUL			RUFIN			LASI			RASI			USACR			LSACR			RSACR			LTHI1			LTHI2			LTHI3			LTHI4			LLFC			LMFC			LTIB1			LTIB2			LTIB3			LTIB4			LLMAL			LMMAL			LHEE			LMT1			LMT2			LMT5			RTHI			RTHI2			RTHI3			RTHI4			RLFC			RMFC			RTIB1			RTIB2			RTIB3			RTIB4			RLMAL			RMMAL			RHEE			RMT1			RMT2			RMT5			
		X1	Y1	Z1	X2	Y2	Z2	X3	Y3	Z3	X4	Y4	Z4	X5	Y5	Z5	X6	Y6	Z6	X7	Y7	Z7	X8	Y8	Z8	X9	Y9	Z9	X10	Y10	Z10	X11	Y11	Z11	X12	Y12	Z12	X13	Y13	Z13	X14	Y14	Z14	X15	Y15	Z15	X16	Y16	Z16	X17	Y17	Z17	X18	Y18	Z18	X19	Y19	Z19	X20	Y20	Z20	X21	Y21	Z21	X22	Y22	Z22	X23	Y23	Z23	X24	Y24	Z24	X25	Y25	Z25	X26	Y26	Z26	X27	Y27	Z27	X28	Y28	Z28	X29	Y29	Z29	X30	Y30	Z30	X31	Y31	Z31	X32	Y32	Z32	X33	Y33	Z33	X34	Y34	Z34	X35	Y35	Z35	X36	Y36	Z36	X37	Y37	Z37	X38	Y38	Z38	X39	Y39	Z39	X40	Y40	Z40	X41	Y41	Z41	X42	Y42	Z42	X43	Y43	Z43	X44	Y44	Z44	X45	Y45	Z45	X46	Y46	Z46	X47	Y47	Z47	X48	Y48	Z48	X49	Y49	Z49	X50	Y50	Z50	X51	Y51	Z51	X52	Y52	Z52	X53	Y53	Z53	X54	Y54	Z54	X55	Y55	Z55	X56	Y56	Z56	X57	Y57	Z57	X58	Y58	Z58	X59	Y59	Z59	X60	Y60	Z60	X61	Y61	Z61	

1152	5.755	-143.8328857421875	1789.111206054688	-1106.470825195313	-306.6996765136719	1731.607177734375	-1170.698120117188	-319.6646118164063	1734.689331054688	-1030.704833984375	-352.9913635253907	1568.193969726563	-1087.609008789063	-416.3182067871095	1248.918579101563	-1070.905395507813	-208.3769836425782	1505.54248046875	-1089.533569335938	-278.3150024414063	1564.460327148438	-1238.409301757813	-133.4792938232422	1440.172607421875	-1365.548461914063	-98.71492767333987	1473.664794921875	-1352.160888671875	-65.36194610595705	1429.3193359375	-1375.681884765625	-6.732449531555178	1430.889404296875	-1374.695190429688	-7.343833923339846	1365.48681640625	-1328.041870117188	240.8367156982422	1458.703369140625	-1271.847534179688	264.7041015625001	1427.787353515625	-1339.552734375	332.4132080078126	1485.512817382813	-1282.947143554688	-276.0215454101563	1569.625	-945.8696899414065	-138.8158416748047	1446.665893554688	-806.6729125976565	-100.642807006836	1473.421020507813	-818.0945434570315	-73.26058959960939	1425.036010742188	-793.1589965820315	-27.7734775543213	1414.71484375	-792.9370727539065	-34.4878044128418	1357.038818359375	-844.5472412109377	221.2342071533204	1459.093627929688	-925.0014648437502	234.8352355957032	1442.54345703125	-851.553161621094	299.2190246582032	1494.1728515625	-928.1484985351565	-261.0057067871094	1041.550048828125	-1169.558349609375	-260.8981628417969	1073.717895507813	-923.8172607421877	-432.0196838378907	1167.749145507813	-1059.39501953125	-442.9087524414064	1134.724853515625	-1083.598999023438	-443.2322998046876	1139.789916992188	-1026.161010742188	-346.9155578613282	800.7981567382815	-1232.0693359375	-306.0467224121094	725.8759765625001	-1223.033935546875	-259.6564025878907	734.9933471679689	-1217.422729492188	-327.9737854003907	673.6270751953126	-1198.762817382813	-308.1126403808594	525.0010375976564	-1166.490478515625	-279.9360351562501	535.4177246093751	-1028.95703125	-271.1792907714844	367.2422180175782	-1093.32421875	-319.3260803222657	315.6154479980469	-1145.638061523438	-281.6123046875001	315.1455383300782	-1119.6025390625	-293.7267761230469	243.2330780029297	-1076.517578125	-358.3504333496094	108.8499450683594	-1102.15673828125	-329.0941162109376	132.876449584961	-1012.114685058594	-427.9089965820314	101.50244140625	-1042.21435546875	-216.8229675292969	55.11262130737306	-1019.670349121094	-208.6558837890626	54.35703277587892	-1068.9736328125	-260.4099121093751	39.03424453735352	-1120.052978515625	-290.5578308105469	789.8201904296877	-804.026550292969	-238.8443298339844	747.0356445312501	-797.384704589844	-206.4360656738282	753.7113647460939	-803.5257568359377	-248.3277587890626	663.5827636718751	-805.540222167969	-256.8162841796876	609.6345825195314	-810.6479492187502	-195.8791809082032	585.2653808593751	-935.332946777344	-312.0030212402344	515.5527343750001	-837.6077880859377	-411.0264587402345	555.0864868164064	-824.516540527344	-399.0962524414064	511.5166931152345	-834.4484863281252	-434.4791564941407	483.3963928222657	-871.275329589844	-615.4220581054689	482.8657531738282	-886.0438232421877	-575.7676391601564	463.1486816406251	-971.3193359375002	-617.4327392578126	556.5882568359376	-935.966491699219	-671.9159545898439	355.3493347167969	-1007.759704589844	-683.1469116210939	340.9461669921876	-963.2128906250002	-710.5928344726564	382.2502136230469	-913.669616699219	
1153	5.76	-144.4623107910157	1789.818603515625	-1106.46630859375	-307.4793701171876	1732.419311523438	-1170.910766601563	-320.3185119628907	1735.469116210938	-1030.821166992188	-353.7338256835938	1568.791381835938	-1087.736083984375	-416.3229064941407	1249.474487304688	-1071.268798828125	-209.0349731445313	1506.397583007813	-1089.628784179688	-279.1034240722657	1565.277465820313	-1238.702880859375	-125.4190673828125	1442.7587890625	-1371.270874023438	-99.4786071777344	1474.24072265625	-1352.135864257813	-66.04664611816408	1430.014892578125	-1375.637573242188	-7.260573387145998	1431.480346679688	-1374.695678710938	-7.84451198577881	1366.375244140625	-1328.14111328125	240.0708465576172	1459.31787109375	-1271.791870117188	264.0459289550782	1428.38720703125	-1339.495971679688	331.5803527832032	1486.03466796875	-1282.872680664063	-277.3180541992188	1570.20703125	-945.9152832031252	-139.6917877197266	1447.512329101563	-806.6672973632815	-101.6099243164063	1474.225463867188	-818.0797119140627	-73.96154785156251	1425.681030273438	-793.0968017578127	-28.76794242858887	1415.425659179688	-792.994079589844	-35.38239669799805	1357.659301757813	-844.5056762695315	225.2972259521485	1461.819580078125	-931.0279541015627	233.798812866211	1442.974731445313	-851.5146484375002	298.3513793945313	1494.665893554688	-928.350524902344	-259.9095153808594	1042.325561523438	-1170.176025390625	-260.5912780761719	1074.615966796875	-923.9042968750002	-432.0581665039064	1168.2900390625	-1059.588745117188	-441.6892395019532	1134.902099609375	-1084.007690429688	-443.0768127441407	1140.370361328125	-1026.42333984375	-347.0858459472657	801.397644042969	-1231.8974609375	-306.5342712402344	726.2655029296876	-1222.670043945313	-260.1703186035157	735.1779785156251	-1217.234985351563	-328.5522766113282	673.9554443359376	-1198.367919921875	-309.9364624023438	525.3134765625001	-1165.964477539063	-281.4166564941407	535.6352539062501	-1028.612915039063	-271.8807067871094	367.5260009765626	-1093.260009765625	-320.1595764160157	315.8331604003907	-1145.450927734375	-282.1011657714844	315.5730285644532	-1119.580078125	-294.1673889160157	243.3880310058594	-1076.43798828125	-358.4190979003907	108.8803100585938	-1102.125610351563	-329.2397766113282	132.9041137695313	-1012.08203125	-427.9554443359376	101.461784362793	-1042.200073242188	-216.8323364257813	55.11885452270509	-1019.646118164063	-208.6618347167969	54.35605239868165	-1068.975219726563	-260.3730163574219	39.01679992675782	-1120.047119140625	-289.5898742675782	790.7731933593752	-803.6819458007815	-237.9171905517579	748.2722167968751	-796.9949951171877	-205.5548248291016	755.0351562500001	-802.8979492187502	-246.7906951904297	664.7157592773439	-805.0214843750002	-255.4451141357422	610.8295288085939	-810.0258789062502	-195.2767028808594	586.2359619140626	-934.3824462890627	-310.2543945312501	516.8607177734376	-836.7535400390627	-409.5252990722657	556.0766601562501	-823.9216918945315	-397.4971008300782	512.5997314453126	-833.5782470703127	-432.8012084960939	484.2410888671876	-870.6626586914065	-613.6809692382814	483.5493164062501	-885.667419433594	-574.4619140625001	463.3550415039064	-969.417663574219	-615.7955932617189	557.1145629882814	-935.6687011718752	-670.0623168945314	355.7876892089844	-1007.188781738281	-681.4641113281251	341.1945190429688	-963.0296630859377	-708.5848999023439	382.6158447265626	-912.9882812500002	
1154	5.765	-145.1244354248047	1790.27880859375	-1106.658203125	-307.7912292480469	1733.304321289063	-1171.0048828125	-321.2749328613282	1736.54150390625	-1030.9111328125	-354.5783996582032	1569.475219726563	-1088.012573242188	-416.4156494140626	1249.91015625	-1071.501953125	-209.6480102539063	1507.28564453125	-1089.705444335938	-279.7224121093751	1565.831909179688	-1238.816528320313	-134.9196014404297	1441.486206054688	-1365.939331054688	-100.2228317260742	1474.642822265625	-1352.209106445313	-66.53348541259767	1430.280883789063	-1375.651977539063	-7.72327756881714	1432.12255859375	-1374.681884765625	-8.310523986816408	1367.087646484375	-1328.042724609375	239.6974639892579	1459.904174804688	-1271.907592773438	264.4789428710938	1428.748901367188	-1339.51318359375	331.3921813964844	1486.322631835938	-1282.9091796875	-277.9637145996094	1570.843383789063	-945.999450683594	-140.836898803711	1448.141357421875	-806.7063598632815	-102.4218368530274	1474.898315429688	-818.178161621094	-74.91426849365236	1426.515014648438	-793.131042480469	-29.52977371215821	1416.337280273438	-793.0783691406252	-36.2160873413086	1358.460205078125	-844.4837036132815	224.4720306396485	1462.611938476563	-931.2045898437502	232.9545135498047	1443.702270507813	-851.6368408203127	297.5377807617188	1495.310913085938	-928.5867919921877	-259.4128417968751	1042.843994140625	-1170.253295898438	-260.3993530273438	1075.57568359375	-924.0266113281252	-431.8610229492189	1168.590087890625	-1059.824584960938	-441.2752380371095	1135.2578125	-1084.230712890625	-442.8302612304689	1140.888793945313	-1026.649169921875	-347.1971435546876	801.990905761719	-1231.636840820313	-306.9528503417969	726.3078002929689	-1222.483276367188	-260.6401672363282	735.2470703125001	-1217.04150390625	-328.6204223632813	674.3515014648439	-1198.26416015625	-311.6315612792969	525.7787475585939	-1165.6962890625	-282.2942810058594	536.0740966796876	-1028.465698242188	-273.2406311035157	367.7107543945313	-1092.853759765625	-321.0665893554688	316.1065063476563	-1145.214233398438	-283.1221313476563	315.7430114746094	-1119.332885742188	-294.7196655273438	243.591049194336	-1076.286254882813	-358.4466552734376	108.8552551269532	-1102.049682617188	-329.3106689453126	132.9198913574219	-1012.0576171875	-427.821746826172	101.3610534667969	-1042.224243164063	-216.8139343261719	55.10231781005861	-1019.644287109375	-208.6467895507813	54.35655975341798	-1068.956909179688	-260.4606628417969	39.1717872619629	-1120.013671875	-288.4224243164063	791.9066162109377	-803.4786376953127	-236.7657470703126	749.4838867187501	-796.6221923828127	-204.519515991211	756.3025512695314	-802.6490478515627	-245.4890747070313	666.0051879882814	-804.4541625976565	-254.0947265625001	612.2417602539064	-809.4038696289065	-192.7583007812501	587.6003417968751	-933.9834594726565	-308.7174072265626	517.8849487304689	-836.3797607421877	-407.7030639648439	556.9604492187501	-823.5737304687502	-395.752899169922	513.6375732421876	-833.3526000976565	-431.0110778808595	484.894012451172	-870.2081298828127	-611.9797973632814	484.312957763672	-885.3452758789065	-572.4478759765626	463.8436889648439	-968.844421386719	-613.9685058593751	557.7739868164064	-935.5411376953127	-667.9066772460939	356.2381286621094	-1006.531127929688	-679.3115844726564	341.8615112304688	-961.9575805664065	-706.6194458007814	383.0925903320313	-912.7260742187502	
1155	5.77	-145.582275390625	1791.067504882813	-1106.76025390625	-308.7315673828126	1734.180297851563	-1171.227661132813	-321.7654724121094	1737.188598632813	-1031.2685546875	-355.3918762207032	1569.978637695313	-1088.25	-416.4969787597657	1250.420654296875	-1071.801879882813	-210.3888244628907	1508.176879882813	-1089.773803710938	-280.4216918945313	1566.529907226563	-1239.130615234375	-135.1194915771485	1441.910522460938	-1365.9306640625	-100.5904693603516	1475.39794921875	-1352.366821289063	-67.21090698242189	1430.859008789063	-1375.631469726563	-8.189192771911623	1432.661743164063	-1374.69775390625	-9.268973350524904	1367.851928710938	-1328.456787109375	239.1526336669922	1460.558227539063	-1271.916259765625	263.9585266113282	1429.2509765625	-1339.55029296875	330.7941589355469	1487.05517578125	-1282.888549804688	-278.7635803222657	1571.663208007813	-946.1089477539065	-141.5621185302735	1449.038940429688	-806.8289794921877	-103.2270050048828	1475.619873046875	-818.304382324219	-75.84594726562501	1427.3603515625	-793.1981201171877	-30.51773262023926	1417.093627929688	-793.0123291015627	-37.1682472229004	1359.224731445313	-844.3530883789065	228.9455718994141	1463.480102539063	-935.6585693359377	232.1268615722657	1444.41015625	-851.9178466796877	296.5704345703126	1495.817626953125	-928.7949829101565	-258.9094848632813	1043.289306640625	-1170.354248046875	-260.0427551269532	1076.733642578125	-924.1507568359377	-431.6994018554689	1168.841430664063	-1060.049560546875	-442.6666259765626	1135.598876953125	-1084.155151367188	-442.3801574707032	1141.186889648438	-1026.92724609375	-347.2089843750001	802.3083496093752	-1231.379028320313	-307.1945190429688	726.6011962890626	-1222.369018554688	-261.0519409179688	735.3059692382814	-1216.804077148438	-329.7995910644532	674.8770141601564	-1197.697631835938	-312.7789306640626	525.8831787109376	-1165.4814453125	-283.7346496582032	536.1749877929689	-1028.176635742188	-274.2523193359376	367.9503784179688	-1092.65478515625	-321.8648986816407	316.3419494628907	-1145.066162109375	-284.1155395507813	315.9978637695313	-1119.09033203125	-295.4943237304688	243.7936096191407	-1076.199951171875	-358.5287170410157	108.8983001708985	-1101.9541015625	-329.4098205566407	132.9705657958985	-1012.018920898438	-427.9701232910157	101.4570693969727	-1042.122680664063	-216.8564453125001	55.12273406982423	-1019.612365722656	-208.6681365966797	54.32822036743165	-1068.946411132813	-260.3931884765626	39.2276725769043	-1120.029296875	-287.8069458007813	792.9744873046877	-802.6867675781252	-235.6587829589844	750.8393554687501	-796.1455078125002	-203.1822814941407	757.6819458007814	-802.2378540039065	-244.2306060791016	667.0040893554689	-804.028015136719	-252.4985504150391	613.3786010742189	-808.8891601562502	-192.1262207031251	588.6458129882814	-933.0488891601565	-306.8626403808594	519.1305541992189	-835.516296386719	-406.3141479492189	558.1495361328126	-822.9849853515627	-394.361297607422	514.6776123046876	-832.4099731445315	-429.1628723144532	485.9195861816407	-869.8130493164065	-610.2142333984376	485.023895263672	-884.9046020507815	-570.7448730468751	464.5473937988282	-968.5275878906252	-612.4689331054689	558.4169311523439	-935.2692871093752	-666.0424804687501	356.6762390136719	-1005.933044433594	-677.0603027343751	342.2943420410157	-961.6948852539065	-704.4816894531251	383.6934814453126	-912.183288574219	
